<?xml version="1.0" encoding="utf-8"?>
<!-- Generator: Adobe Illustrator 16.0.0, SVG Export Plug-In . SVG Version: 6.00 Build 0)  -->
<!DOCTYPE svg PUBLIC "-//W3C//DTD SVG 1.1//EN" "http://www.w3.org/Graphics/SVG/1.1/DTD/svg11.dtd">
<svg version="1.1" id="Capa_1" xmlns="http://www.w3.org/2000/svg" xmlns:xlink="http://www.w3.org/1999/xlink" x="0px" y="0px"
	 width="1000px" height="500px" viewBox="0 0 1000 500" enable-background="new 0 0 1000 500" xml:space="preserve">
<rect fill="#00838F" width="1000" height="500"/>
<path opacity="0.1" fill="#FDFDFD" d="M113.413,53.18c3.479-15.667-1.188-25.32-1.188-25.32S100.941-3.224,69.363,4.823
	C37.786,12.87,39.91,36.299,39.91,36.299S31.177,14.554-0.4,22.601s-26.609,40.74-26.609,40.74s0.508,10.357,10.559,22.199
	l-11.342,2.89l1.214,4.765l13.953-3.555c4.722,4.614,10.983,9.297,19.309,13.554l57.823,29.631l0.138,0.542l0.239-0.35l0.378,0.192
	l-0.143-0.538l36.594-53.693c5.053-7.399,8.252-14.233,10.217-20.344l15.051-3.835l-1.215-4.766L113.413,53.18z M111.923,58.636
	L66.384,70.24l-6.522-8.559l-8.822,41.167L31.692,67.196L30.48,78.655l-43.095,10.982c-1.417-1.379-2.658-2.747-3.809-4.104
	L26.12,74.692l2.448-23.204L49.07,89.27l8.299-38.718l10.792,14.16L113.4,53.183C113.014,54.929,112.531,56.745,111.923,58.636z"/>
<path opacity="0.1" fill="#FFFFFF" d="M323.764,154.83c0,0-2.209-21.463-24.299-21.463c-22.092,0-24.619,15.149-24.619,15.149
	s-2.096-15.149-24.187-15.149s-24.301,21.463-24.301,21.463s-3.156,14.833,15.463,30.613l33.024,28.039v0.366l0.217-0.184
	l0.215,0.184l-0.004-0.364l33.029-28.041C326.922,169.663,323.764,154.83,323.764,154.83z"/>
<path opacity="0.1" fill="#FFFFFF" d="M87.01,278.131h-2v-7.677c0-4.646-3.708-6.706-6.901-7.06l-0.15,1.192v-1.208H52.919
	c-2.473,0-4.451,0.757-5.89,2.253c-2.249,2.341-2.187,5.529-2.176,5.812v6.688h-2.584c-29.97,0.247-31.851,14.259-31.851,31.85
	v13.566c0,17.591,3.863,31.615,31.851,31.85H87.01c28.079-0.481,31.85-14.259,31.85-31.85V309.98
	C118.86,292.39,116.079,277.883,87.01,278.131z M48.599,271.382c0-0.018-0.036-1.959,1.148-3.173c0.702-0.72,1.77-1.086,3.172-1.086
	h24.83c1.328,0.155,3.516,0.794,3.516,3.331v7.677H48.599V271.382z M82.348,321.422H71.06v11.292c0,3.511-2.853,6.356-6.356,6.356
	c-3.516,0-6.357-2.846-6.357-6.356v-11.292H47.056c-3.515,0-6.351-2.845-6.351-6.351c0-3.508,2.835-6.354,6.351-6.354h11.291
	v-11.292c0-3.514,2.841-6.36,6.357-6.36c3.503,0,6.356,2.847,6.356,6.36v11.292h11.288c3.511,0,6.356,2.847,6.356,6.354
	C88.704,318.577,85.858,321.422,82.348,321.422z"/>
<path opacity="0.1" fill="#FFFFFF" d="M205.851,231.086c-5.432-26.74-22.46-32.161-22.46-32.161
	c-3.234-2.152-3.592-2.392-8.116-0.424c-4.525,1.966-4.303,9.58-4.396,11.903c-0.029,0.72-0.298,2.163-0.656,3.81
	c-2.779-1.211-4.657-3.502-5.814-5.45c1.084-9.551,4.413-25.653,4.413-25.653l-6.129-0.761c0,0-0.973,15.301-2.506,25.272
	c-1.73,1.755-4.178,2.923-6.234,3.651c0.058-1.288,0.14-2.366,0.261-2.939c0.477-2.275,2.556-9.603-1.35-12.616
	c-3.906-3.015-4.312-2.871-7.974-1.575c0,0-17.837,1.091-29.644,25.689c-11.809,24.599-12.778,40.233-4.584,46.306
	c8.191,6.077,25.097,6.231,31.893,3.186c6.796-3.047,5.833-10.946,6.022-14.036c0.189-3.089,1.859-10.273,2.744-12.691
	c0.573-1.568,1.524-9.468,2.081-15.366c3.333-3.133,6.38-2.645,6.38-2.645c3.708,0.335,5.964,3.301,7.103,5.379
	c-0.858,5.711-1.744,12.803-1.583,14.368c0.269,2.561,0.129,9.936-0.443,12.977c-0.573,3.042-3.44,10.466,2.405,15.082
	c5.847,4.616,22.274,8.603,31.703,4.715C208.396,273.223,211.282,257.827,205.851,231.086z"/>
<g opacity="0.1">
	<g>
		<path fill="#FFFFFF" d="M102.765,169.899L32.151,211.24c-6.295,3.686-14.415,1.563-18.099-4.731l-6.493-11.094
			c-3.687-6.295-1.565-14.413,4.732-18.099l70.611-41.341c6.295-3.686,14.415-1.563,18.099,4.732l6.493,11.093
			C111.181,158.095,109.059,166.213,102.765,169.899z M14.834,181.663c-3.896,2.281-5.213,7.311-2.93,11.206l6.495,11.094
			c2.28,3.897,7.31,5.212,11.205,2.931l70.614-41.342c3.896-2.28,5.213-7.309,2.93-11.206l-6.495-11.094
			c-2.28-3.897-7.31-5.211-11.206-2.931L14.834,181.663z"/>
	</g>
	
		<rect x="70.411" y="153.133" transform="matrix(-0.863 0.5051 -0.5051 -0.863 218.9614 271.0149)" fill="#FFFFFF" width="4.655" height="24.118"/>
	<circle fill="#FFFFFF" cx="86.766" cy="167.354" r="1.54"/>
	<circle fill="#FFFFFF" cx="82.236" cy="159.617" r="1.539"/>
	<circle fill="#FFFFFF" cx="93.212" cy="158.108" r="1.539"/>
	<circle fill="#FFFFFF" cx="89.319" cy="151.458" r="1.54"/>
	<path fill="#FFFFFF" d="M77.017,153.746c0.43,0.734,1.37,0.979,2.103,0.551c0.737-0.43,0.983-1.372,0.554-2.105
		c-0.43-0.735-1.373-0.981-2.107-0.551C76.831,152.07,76.585,153.01,77.017,153.746z"/>
	
		<rect x="39.165" y="171.426" transform="matrix(0.8629 -0.5053 0.5053 0.8629 -87.0291 46.1148)" fill="#FFFFFF" width="4.656" height="24.119"/>
	<path fill="#FFFFFF" d="M37.841,195.999c0.43,0.732,0.181,1.675-0.551,2.105c-0.735,0.429-1.679,0.183-2.105-0.549
		c-0.432-0.736-0.187-1.679,0.552-2.109C36.468,195.018,37.409,195.265,37.841,195.999z"/>
	<circle fill="#FFFFFF" cx="31.981" cy="189.039" r="1.538"/>
	<path fill="#FFFFFF" d="M26.625,197.093c0.427,0.734,0.181,1.677-0.551,2.106c-0.734,0.431-1.679,0.184-2.107-0.552
		c-0.43-0.732-0.184-1.675,0.551-2.106C25.249,196.113,26.195,196.36,26.625,197.093z"/>
	<path fill="#FFFFFF" d="M22.731,190.444c0.427,0.734,0.182,1.677-0.551,2.105c-0.734,0.43-1.678,0.185-2.107-0.551
		c-0.43-0.732-0.184-1.675,0.551-2.104S22.302,189.708,22.731,190.444z"/>
	<path fill="#FFFFFF" d="M29.418,181.613c0.427,0.733,0.182,1.676-0.551,2.104c-0.734,0.43-1.678,0.185-2.107-0.549
		c-0.43-0.734-0.184-1.679,0.551-2.106C28.045,180.632,28.99,180.878,29.418,181.613z"/>
</g>
<g opacity="0.1">
	<path fill="#FFFFFF" d="M147.486,67.237l2.463,6.117l-6.118,2.463c-1.903,0.766-2.817,2.926-2.052,4.826
		c0.765,1.899,2.92,2.823,4.823,2.057l6.118-2.463l2.463,6.118c0.766,1.901,2.926,2.824,4.832,2.057
		c1.896-0.763,2.822-2.929,2.057-4.83l-2.463-6.118l6.116-2.462c1.9-0.765,2.822-2.927,2.057-4.827
		c-0.765-1.899-2.927-2.821-4.828-2.056l-6.116,2.462l-2.462-6.117c-0.766-1.903-2.935-2.823-4.831-2.06
		C147.639,63.171,146.72,65.334,147.486,67.237z"/>
	
		<ellipse transform="matrix(-0.3735 -0.9276 0.9276 -0.3735 110.3418 311.7994)" fill="#FFFFFF" cx="160.467" cy="118.637" rx="3.561" ry="6.477"/>
	
		<ellipse transform="matrix(-0.3735 -0.9276 0.9276 -0.3735 152.2699 320.7924)" fill="#FFFFFF" cx="184.465" cy="108.975" rx="3.561" ry="6.474"/>
	<path fill="#FFFFFF" d="M202.44,86.996l-9.515-34.348l-1.179-0.253c-15.093-3.207-29.623-2.064-43.189,3.397
		c-21.576,8.686-32.953,25.081-33.428,25.775l-0.692,1.013l16.031,28.97c-1.068,6.461-2.948,29.288,18.427,50.693l23.052-9.28
		c5.208,0.457,10.508-0.243,15.575-2.283c5.067-2.04,9.372-5.207,12.813-9.146l22.848-9.198
		C223.182,132.337,221.892,97.32,202.44,86.996z M185.882,146.61c-16.835,6.777-36.585-2.88-44.11-21.571
		c-1.18-2.93-1.989-5.908-2.449-8.874c5.706-1.894,19.679-7.961,21.249-22.153c0.259-0.077,0.517-0.158,0.776-0.232
		c4.742,1.271,32.219,8.314,39.543,2.765c0.675,1.268,1.299,2.581,1.85,3.949C210.265,119.186,202.717,139.833,185.882,146.61z
		 M198.422,87.406c-7.475-0.885-27.167-2.271-44.539,4.723c-8.909,3.586-15.915,8.893-20.874,15.797l-13.876-25.083
		c2.76-3.595,13.416-16.316,30.91-23.358c12.465-5.019,25.814-6.173,39.695-3.438L198.422,87.406z"/>
</g>
<g opacity="0.1">
	<path fill="#FFFFFF" d="M157.122,300.207c-2.863-3.502-5.476-3.017-6.568-2.178c-0.022,0.018-0.042,0.035-0.054,0.044
		l-17.164,13.182c-0.012,0.01-0.034,0.023-0.057,0.041c-1.092,0.839-2.236,3.237,0.407,6.909l0.074,0.102l0.084,0.092
		c1.017,1.149,3.213,2.85,5.163,2.35l37.021,48.207c0.113,0.148,2.819,3.641,6.69,6.301c3.445,2.367,8.425,4.467,13.091,1.633
		l0.026,0.034l0.897-0.663l0.031-0.022l0.07-0.055l0.081-0.062l0.899-0.72l-0.025-0.032c3.942-3.777,3.196-9.129,1.801-13.069
		c-1.572-4.427-4.25-7.94-4.363-8.089l-37.021-48.207c0.99-1.758-0.088-4.315-0.936-5.596l-0.067-0.104L157.122,300.207z
		 M155.802,302.708c0.189,0.703,0.068,1.172-0.384,1.519l-0.895,0.688l27.925,36.362l-15.614,11.991l-27.925-36.362l-0.897,0.689
		c-0.454,0.349-0.936,0.343-1.569-0.02c-0.438-0.254-0.807-0.6-0.96-0.753c-1.179-1.713-0.62-2.54-0.173-2.883l17.275-13.267
		c0.45-0.345,1.39-0.67,2.741,0.911C155.434,301.772,155.674,302.217,155.802,302.708z"/>
	<g>
		
			<rect x="168.541" y="304.033" transform="matrix(0.7933 -0.6089 0.6089 0.7933 -165.0094 170.8639)" fill="#FFFFFF" width="1.16" height="48.805"/>
		
			<rect x="175.718" y="341.322" transform="matrix(0.7932 -0.609 0.609 0.7932 -171.4992 178.7207)" fill="#FFFFFF" width="3.29" height="1.039"/>
		
			<rect x="173.175" y="337.991" transform="matrix(0.793 -0.6092 0.6092 0.793 -170.0307 176.5434)" fill="#FFFFFF" width="3.256" height="1.028"/>
		
			<rect x="170.342" y="334.302" transform="matrix(0.793 -0.6092 0.6092 0.793 -168.3698 174.0543)" fill="#FFFFFF" width="3.256" height="1.027"/>
		
			<rect x="167.744" y="330.92" transform="matrix(0.793 -0.6092 0.6092 0.793 -166.8467 171.7717)" fill="#FFFFFF" width="3.256" height="1.027"/>
		
			<rect x="164.911" y="327.231" transform="matrix(0.7931 -0.6091 0.6091 0.7931 -165.1715 169.2525)" fill="#FFFFFF" width="3.256" height="1.027"/>
		
			<rect x="162.41" y="323.973" transform="matrix(0.793 -0.6092 0.6092 0.793 -163.7192 167.0845)" fill="#FFFFFF" width="3.256" height="1.027"/>
		
			<rect x="159.576" y="320.284" transform="matrix(0.7931 -0.6091 0.6091 0.7931 -162.0438 164.5654)" fill="#FFFFFF" width="3.256" height="1.027"/>
		
			<rect x="156.885" y="316.779" transform="matrix(0.7931 -0.6091 0.6091 0.7931 -160.4659 162.2009)" fill="#FFFFFF" width="3.256" height="1.027"/>
		
			<rect x="154.052" y="313.091" transform="matrix(0.7932 -0.6089 0.6089 0.7932 -158.7687 159.6373)" fill="#FFFFFF" width="3.256" height="1.026"/>
	</g>
</g>
<g opacity="0.1">
	<g>
		
			<rect x="270.595" y="254.147" transform="matrix(0.9265 0.3762 -0.3762 0.9265 128.5781 -80.8917)" fill="#FFFFFF" width="1.646" height="69.279"/>
		
			<rect x="258.567" y="307.76" transform="matrix(0.9263 0.3769 -0.3769 0.9263 135.5128 -75.5837)" fill="#FFFFFF" width="4.672" height="1.475"/>
		
			<rect x="260.844" y="302.238" transform="matrix(0.9263 0.3768 -0.3768 0.9263 133.5736 -76.8334)" fill="#FFFFFF" width="4.623" height="1.459"/>
		
			<rect x="263.332" y="296.125" transform="matrix(0.9261 0.3772 -0.3772 0.9261 131.5997 -78.2743)" fill="#FFFFFF" width="4.624" height="1.457"/>
		
			<rect x="265.615" y="290.517" transform="matrix(0.9263 0.3768 -0.3768 0.9263 129.5077 -79.4953)" fill="#FFFFFF" width="4.623" height="1.457"/>
		
			<rect x="268.103" y="284.4" transform="matrix(0.9263 0.3769 -0.3769 0.9263 127.4012 -80.8896)" fill="#FFFFFF" width="4.623" height="1.459"/>
		
			<rect x="270.3" y="279.001" transform="matrix(0.9263 0.3768 -0.3768 0.9263 125.5135 -82.1101)" fill="#FFFFFF" width="4.623" height="1.457"/>
		
			<rect x="272.79" y="272.885" transform="matrix(0.9263 0.3768 -0.3768 0.9263 123.3919 -83.4991)" fill="#FFFFFF" width="4.623" height="1.456"/>
		
			<rect x="275.154" y="267.074" transform="matrix(0.9263 0.3768 -0.3768 0.9263 121.3627 -84.8123)" fill="#FFFFFF" width="4.624" height="1.457"/>
		
			<rect x="277.643" y="260.958" transform="matrix(0.9263 0.3769 -0.3769 0.9263 119.2692 -86.2135)" fill="#FFFFFF" width="4.623" height="1.457"/>
	</g>
	<path fill="#FFFFFF" d="M297.399,253.849c2.241-6.018-0.228-8.871-2.039-9.606c-0.038-0.017-0.074-0.028-0.094-0.036l-28.455-11.58
		c-0.022-0.008-0.053-0.023-0.091-0.04c-1.81-0.736-5.569-0.417-8.172,5.454l-0.072,0.164l-0.056,0.167
		c-0.675,2.071-1.184,5.98,0.825,8.01L226.725,326.3c-0.1,0.244-2.438,6.065-2.924,12.714c-0.429,5.918,0.57,13.525,7.387,17.21
		l-0.023,0.057l1.457,0.624l0.05,0.022l0.117,0.046l0.132,0.056l1.527,0.585l0.022-0.053c7.453,2.121,13.474-2.63,17.303-7.164
		c4.296-5.099,6.682-10.899,6.781-11.145l32.521-79.919c2.864-0.046,5.226-3.201,6.186-5.157l0.079-0.158L297.399,253.849z
		 M293.39,254.025c-0.727,0.735-1.387,0.923-2.135,0.617l-1.486-0.604l-17.131,42.099l-25.884-10.532l17.131-42.1l-1.487-0.604
		c-0.752-0.306-1.091-0.901-1.104-1.937c0.001-0.717,0.159-1.418,0.237-1.716c1.253-2.672,2.666-2.581,3.406-2.279l28.64,11.654
		c0.745,0.302,1.817,1.223,0.849,4.011C294.273,252.903,293.9,253.516,293.39,254.025z"/>
</g>
<g opacity="0.1">
	<path fill="#FFFFFF" d="M322.043,333.309c-3.46-3.313-7.906-5.138-12.512-5.138c-4.395,0-8.421,1.682-11.344,4.736l-25.554,26.698
		c-6.173,6.453-5.522,17.137,1.452,23.815c3.465,3.313,7.909,5.138,12.518,5.138c4.39,0,8.418-1.682,11.339-4.733l25.555-26.699
		C329.671,350.671,329.018,339.987,322.043,333.309z M320.786,354.533l-12.377,12.933c-9.602-3.046-15.177-11.983-17.7-17.201
		l-15.371,14.62c-2.421,2.421-3.226,5.446-3.226,5.446c-2.017-3.227,1.814-7.062,1.814-7.062l15.543-15.828l11.429-11.941
		c2.207-2.309,5.272-3.579,8.631-3.579c3.636,0,7.16,1.454,9.92,4.096C324.934,341.267,325.534,349.573,320.786,354.533z"/>
	<g>
		<path fill="#FFFFFF" d="M353.859,372.954c-0.757-6.353-6.101-11.297-12.658-11.297h-5.248c-6.556,0-11.899,4.944-12.656,11.297
			H353.859z"/>
		<path fill="#FFFFFF" d="M323.359,376.584c1.017,6.061,6.248,10.69,12.595,10.69h5.248c6.349,0,11.58-4.63,12.595-10.69H323.359z"
			/>
	</g>
</g>
<g opacity="0.1">
	<path fill="#FFFFFF" d="M561.217,59.758c-4.5-4.308-10.281-6.682-16.271-6.682c-5.715,0-10.951,2.188-14.752,6.16l-33.233,34.72
		c-8.027,8.393-7.182,22.286,1.889,30.971c4.506,4.308,10.286,6.682,16.28,6.682c5.709,0,10.947-2.187,14.746-6.155l33.232-34.721
		C571.137,82.338,570.287,68.443,561.217,59.758z M559.582,87.36l-16.096,16.818C531,100.218,523.75,88.594,520.469,81.81
		l-19.989,19.011c-3.148,3.148-4.195,7.083-4.195,7.083c-2.623-4.196,2.359-9.182,2.359-9.182l20.213-20.584l14.863-15.53
		c2.869-3.001,6.855-4.654,11.225-4.654c4.729,0,9.311,1.891,12.9,5.327C564.977,70.107,565.756,80.91,559.582,87.36z"/>
</g>
<g opacity="0.1">
	<g>
		<path fill="#FFFFFF" d="M341.647,80.669c-0.984-8.26-7.934-14.69-16.461-14.69h-6.824c-8.525,0-15.475,6.43-16.459,14.69H341.647z
			"/>
		<path fill="#FFFFFF" d="M301.983,85.391c1.322,7.88,8.125,13.902,16.379,13.902h6.824c8.256,0,15.059-6.022,16.379-13.902H301.983
			z"/>
	</g>
</g>
<g opacity="0.1">
	<path fill="#FFFFFF" d="M491.779,233.057c-0.501-1.415-1.138-2.575-1.198-2.684l-21.676-39.405l-0.045-0.077
		c-1.702-2.755-2.505-8.802-2.68-10.966l-0.728-33.915c1.922-0.91,2.62-3.194,2.584-4.83l-0.007-0.118
		c-0.165-1.885-1.175-3.34-2.842-4.101c-1.155-0.526-2.322-0.584-2.915-0.572c-0.077,0.002-0.139,0.006-0.184,0.008l-21.607,0.464
		c-0.046,0-0.106-0.002-0.185,0c-0.594,0.013-1.755,0.121-2.886,0.696c-1.633,0.83-2.58,2.33-2.665,4.219l0,0.118
		c0.035,1.635,0.829,3.889,2.789,4.715l0.728,33.915c-0.079,2.17-0.624,8.246-2.206,11.07l-0.021,0.04l-19.985,40.339
		c-0.055,0.111-0.644,1.298-1.082,2.733c-0.717,2.337-0.68,4.083,0.11,5.335c0.399,0.635,1.377,1.692,3.424,1.648l70.048-1.504
		c2.046-0.044,2.976-1.142,3.349-1.794C492.632,237.106,492.595,235.361,491.779,233.057z M439.175,193.287
		c2.321-4.195,2.622-12.345,2.634-12.69l-0.798-37.251l-1.773,0.038c-0.278,0.006-0.475-0.024-0.692-0.495
		c-0.172-0.376-0.236-0.825-0.25-1.027c0.041-0.567,0.254-0.901,0.724-1.141c0.425-0.218,0.978-0.303,1.353-0.312
		c0.021,0,0.037-0.001,0.049-0.001l0.03,0.003l21.752-0.467l0.037,0l0.059-0.006c0.011,0,0.027,0,0.049-0.001
		c0.375-0.008,0.931,0.053,1.366,0.253c0.479,0.219,0.707,0.543,0.772,1.108c-0.006,0.203-0.05,0.654-0.206,1.037
		c-0.197,0.48-0.394,0.519-0.671,0.524l-1.775,0.038l0.798,37.153l0.005,0.098c0.027,0.344,0.679,8.474,3.177,12.565l6.11,11.107
		l-38.376,0.824L439.175,193.287z"/>
	<g>
		
			<rect x="456.384" y="150.15" transform="matrix(0.9998 -0.0216 0.0216 0.9998 -3.8204 9.9099)" fill="#FFFFFF" width="2.241" height="63.832"/>
		
			<rect x="451.638" y="201.92" transform="matrix(0.9998 -0.0215 0.0215 0.9998 -4.2478 9.8182)" fill="#FFFFFF" width="6.341" height="1.36"/>
		
			<rect x="451.555" y="196.429" transform="matrix(0.9998 -0.0215 0.0215 0.9998 -4.1304 9.8162)" fill="#FFFFFF" width="6.271" height="1.343"/>
		
			<rect x="451.424" y="190.347" transform="matrix(0.9998 -0.0215 0.0215 0.9998 -3.9998 9.812)" fill="#FFFFFF" width="6.271" height="1.344"/>
		
			<rect x="451.305" y="184.772" transform="matrix(0.9998 -0.0214 0.0214 0.9998 -3.8663 9.7725)" fill="#FFFFFF" width="6.271" height="1.343"/>
		
			<rect x="451.174" y="178.689" transform="matrix(0.9998 -0.0214 0.0214 0.9998 -3.7361 9.7683)" fill="#FFFFFF" width="6.271" height="1.344"/>
		
			<rect x="451.059" y="173.316" transform="matrix(0.9998 -0.0215 0.0215 0.9998 -3.6336 9.7995)" fill="#FFFFFF" width="6.272" height="1.344"/>
		
			<rect x="450.928" y="167.236" transform="matrix(0.9998 -0.0215 0.0215 0.9998 -3.5032 9.796)" fill="#FFFFFF" width="6.271" height="1.342"/>
		
			<rect x="450.804" y="161.458" transform="matrix(0.9998 -0.0214 0.0214 0.9998 -3.3673 9.7564)" fill="#FFFFFF" width="6.271" height="1.343"/>
		
			<rect x="450.674" y="155.375" transform="matrix(0.9998 -0.0214 0.0214 0.9998 -3.2371 9.7522)" fill="#FFFFFF" width="6.271" height="1.345"/>
	</g>
</g>
<g>
	<g>
		<g>
			<path opacity="0.1" fill="#FFFFFF" d="M230.452,231.739c-5.198,1.672-10.818-1.213-12.49-6.411l-9.777-30.402
				c-1.671-5.197,1.214-10.816,6.411-12.488l1.401-0.45c5.197-1.671,10.817,1.213,12.49,6.41l9.777,30.403
				c1.669,5.197-1.213,10.817-6.412,12.488L230.452,231.739z"/>
			<path opacity="0.2" fill="#FFFFFF" d="M233.374,203.599l-4.887-15.202c-1.672-5.197-7.292-8.081-12.49-6.41l-1.401,0.45
				c-5.197,1.672-8.082,7.292-6.411,12.488l4.888,15.201L233.374,203.599z"/>
		</g>
	</g>
</g>
<g>
	<path opacity="0.1" fill="#FFFFFF" d="M440.727,290.173l-67.318-31.718l-37.461-53.908l5.216-3.623l-7.252-10.435l-31.299,21.754
		l7.253,10.434l5.215-3.628l37.462,53.906l6.266,74.148c0,0,6.849,16.444,25.201,3.689c18.352-12.752,25.692-17.857,25.692-17.857
		s7.343-5.102,25.697-17.856C453.75,302.324,440.727,290.173,440.727,290.173z"/>
	<path opacity="0.2" fill="#FFFFFF" d="M431.571,294.529l-42.086-19.744l-13.62,9.462l-13.62,9.466l3.835,46.328
		c0,0,5.69,10.661,16.701,3.008c11.013-7.652,22.891-15.908,22.891-15.908s11.882-8.257,22.893-15.909
		C439.577,303.578,431.571,294.529,431.571,294.529z"/>
</g>
<g>
	<path opacity="0.1" fill="#FFFFFF" d="M207.909,388.868c5.109-10.804,18.129-15.463,28.933-10.355l63.192,29.881
		c10.803,5.109,15.465,18.131,10.355,28.934l-1.377,2.909c-5.107,10.806-18.128,15.464-28.931,10.355l-63.192-29.88
		c-10.806-5.109-15.463-18.129-10.355-28.934L207.909,388.868z"/>
	<path opacity="0.2" fill="#FFFFFF" d="M245.447,395.714c1.986-4.201,7.049-6.014,11.251-4.027l20.554,9.719
		c4.203,1.988,6.014,7.051,4.028,11.25l-9.806,20.737c-1.985,4.202-7.05,6.015-11.251,4.027l-20.553-9.718
		c-4.202-1.988-6.014-7.052-4.028-11.253L245.447,395.714z"/>
	<circle opacity="0.3" fill="#FFFFFF" cx="269.375" cy="419.713" r="3.279"/>
	<path opacity="0.3" fill="#FFFFFF" d="M255.499,413.151c0.772-1.639,2.727-2.337,4.366-1.563c1.636,0.773,2.336,2.727,1.563,4.363
		c-0.776,1.64-2.729,2.34-4.366,1.566C255.423,416.743,254.723,414.788,255.499,413.151z"/>
	<circle opacity="0.3" fill="#FFFFFF" cx="247.549" cy="409.392" r="3.279"/>
	<circle opacity="0.3" fill="#FFFFFF" cx="264.215" cy="430.625" r="3.278"/>
	<circle opacity="0.3" fill="#FFFFFF" cx="253.302" cy="425.466" r="3.28"/>
	<circle opacity="0.3" fill="#FFFFFF" cx="242.388" cy="420.305" r="3.278"/>
	<circle opacity="0.3" fill="#FFFFFF" cx="274.536" cy="408.8" r="3.278"/>
	<circle opacity="0.3" fill="#FFFFFF" cx="263.622" cy="403.639" r="3.279"/>
	<circle opacity="0.3" fill="#FFFFFF" cx="252.709" cy="398.479" r="3.279"/>
</g>
<g>
	<path opacity="0.1" fill="#F6F6F6" d="M433.463,26.421l-54.523-4.347c-2.526-0.201-4.757,1.701-4.958,4.227l-5.398,67.723
		c-0.201,2.526,1.7,4.757,4.226,4.958l39.313,3.133l-0.365,4.592l11.478,0.914l0.366-4.591l3.73,0.298
		c2.526,0.201,4.756-1.7,4.958-4.226l5.397-67.724C437.89,28.854,435.988,26.623,433.463,26.421z"/>
	<path opacity="0.2" fill="#F6F6F6" d="M375.378,51.248l-3.164,39.71c-0.181,2.259,1.52,4.255,3.779,4.435l38.604,3.077
		l-0.327,4.105l6.823,0.544l0.326-4.105l3.337,0.266c2.259,0.181,4.254-1.521,4.433-3.779l3.167-39.711L375.378,51.248z"/>
	
		<rect x="414.604" y="106.895" transform="matrix(0.9969 0.0792 -0.0792 0.9969 10.4754 -32.647)" opacity="0.2" fill="#F6F6F6" width="4.03" height="17.561"/>
	<polygon opacity="0.2" fill="#F6F6F6" points="385.573,117.453 376.973,116.865 378.367,99.36 386.969,99.948 	"/>
</g>
<g opacity="0.1">
	<path fill="#FFFFFF" d="M517.746,270.929l-2.039,10.115l-10.115-2.039c-3.15-0.636-6.202,1.402-6.835,4.543
		c-0.634,3.143,1.391,6.203,4.541,6.839l10.113,2.04l-2.039,10.115c-0.635,3.145,1.398,6.208,4.549,6.844
		c3.135,0.632,6.207-1.401,6.842-4.546l2.039-10.116l10.115,2.039c3.143,0.635,6.207-1.4,6.842-4.543
		c0.633-3.141-1.404-6.205-4.547-6.839l-10.113-2.04l2.039-10.115c0.635-3.148-1.41-6.215-4.543-6.848
		C521.441,265.743,518.381,267.78,517.746,270.929z"/>
	<path fill="#FFFFFF" d="M491.623,343.831c-5.488-1.106-10.428,0.439-11.036,3.457c-0.608,3.019,3.345,6.36,8.833,7.467
		c5.492,1.107,10.429-0.441,11.037-3.46C501.064,348.278,497.115,344.938,491.623,343.831z"/>
	<path fill="#FFFFFF" d="M531.309,351.835c-5.484-1.106-10.424,0.439-11.033,3.457c-0.607,3.019,3.346,6.36,8.83,7.467
		c5.49,1.106,10.432-0.441,11.041-3.459C540.754,356.282,536.799,352.941,531.309,351.835z"/>
	<path fill="#FFFFFF" d="M572.607,344.014l17.094-53.093l-1.322-1.342c-16.979-17.172-36.957-28.172-59.391-32.695
		c-35.678-7.195-64.652,4.457-65.87,4.957l-1.778,0.729l-3.947,51.663c-6.953,7.53-29.041,35.759-19.497,82.126l38.119,7.688
		c6.417,5.074,13.947,8.718,22.327,10.408c8.378,1.689,16.732,1.249,24.615-0.941l37.783,7.619
		C560.74,421.132,589.162,374.236,572.607,344.014z M499.701,407.723c-27.841-5.615-45.359-35.225-39.126-66.134
		c0.977-4.845,2.479-9.435,4.426-13.709c9.088,2.431,32.576,6.514,46.832-10.693c0.404,0.123,0.813,0.237,1.213,0.363
		c5.107,5.74,34.979,38.575,49.326,37.618c-0.207,2.236-0.521,4.49-0.979,6.753C555.16,392.829,527.537,413.336,499.701,407.723z
		 M567.002,341.095c-9.012-7.584-33.568-26.328-62.295-32.121c-14.732-2.971-28.453-2.06-40.873,2.707l3.423-44.729
		c6.699-2.327,31.571-9.797,60.499-3.963c20.613,4.157,39.061,14.125,54.857,29.638L567.002,341.095z"/>
</g>
<g>
	<g>
		<g>
			<path opacity="0.1" fill="#FFFFFF" d="M56.439,478.753c-10.749,3.458-22.37-2.508-25.828-13.256l-20.217-62.868
				c-3.457-10.746,2.51-22.366,13.256-25.825l2.897-0.93c10.747-3.456,22.369,2.508,25.827,13.254l20.217,62.868
				c3.453,10.748-2.509,22.37-13.259,25.825L56.439,478.753z"/>
			<path opacity="0.2" fill="#FFFFFF" d="M62.481,420.563l-10.106-31.435c-3.458-10.746-15.08-16.71-25.827-13.254l-2.897,0.93
				c-10.746,3.459-16.712,15.079-13.256,25.825l10.108,31.434L62.481,420.563z"/>
		</g>
	</g>
</g>
<g opacity="0.1">
	<g>
		<path fill="#FFFFFF" d="M92.532,208.85c-5.162-6.523-14.449-8.365-21.715-3.902l-5.815,3.572
			c-7.265,4.462-9.82,13.579-6.336,21.132L92.532,208.85z"/>
		<path fill="#FFFFFF" d="M61.206,233.633c5.251,6.022,14.2,7.593,21.233,3.273l5.815-3.572c7.035-4.321,9.679-13.013,6.68-20.418
			L61.206,233.633z"/>
	</g>
</g>
<path opacity="0.1" fill="#FDFDFD" d="M186.079,417.09c2.449-10.264-0.648-16.545-0.648-16.545s-7.44-20.252-28.848-14.797
	c-21.407,5.455-20.114,20.759-20.114,20.759s-5.772-14.163-27.179-8.708s-18.248,26.799-18.248,26.799s0.28,6.768,7.005,14.448
	l-7.689,1.959l0.792,3.108l9.459-2.41c3.165,2.986,7.371,6.01,12.976,8.742l38.926,19.016l0.09,0.354l0.164-0.23l0.254,0.123
	l-0.093-0.351l25.081-35.328c3.463-4.868,5.669-9.356,7.036-13.363l10.203-2.601l-0.792-3.107L186.079,417.09z M185.037,420.666
	l-30.872,7.867l-4.359-5.555l-6.22,26.968l-12.866-23.189l-0.891,7.499l-29.215,7.445c-0.95-0.894-1.781-1.779-2.551-2.66
	l28.841-7.35l1.798-15.186l13.634,24.574l5.852-25.363l7.212,9.191l30.668-7.816C185.798,418.236,185.46,419.427,185.037,420.666z"
	/>
<g>
	<g>
		<g>
			<path opacity="0.1" fill="#FFFFFF" d="M231.882,93.896c-6.358-5.96-6.684-16.038-0.723-22.396l34.86-37.188
				c5.958-6.357,16.035-6.681,22.394-0.723l1.713,1.606c6.357,5.959,6.684,16.036,0.726,22.395L255.99,94.777
				c-5.96,6.355-16.036,6.683-22.394,0.721L231.882,93.896z"/>
			<path opacity="0.2" fill="#FFFFFF" d="M273.419,76.182l17.432-18.592c5.958-6.359,5.632-16.436-0.726-22.395l-1.713-1.606
				c-6.358-5.958-16.436-5.634-22.394,0.723l-17.43,18.593L273.419,76.182z"/>
		</g>
	</g>
</g>
<g opacity="0.1">
	<path fill="#FFFFFF" d="M600.322,245.665c0.656-2.588,0.862-4.933,0.879-5.154l6.875-79.706l0.01-0.159
		c0.204-5.758,4.991-15.495,6.871-18.868l32.436-50.885c3.742,0.554,7.031-2.137,8.596-4.59l0.107-0.182
		c1.617-2.951,1.561-6.102-0.152-8.875c-1.189-1.92-2.857-3.158-3.746-3.725c-0.115-0.074-0.213-0.129-0.281-0.17l-32.42-20.665
		c-0.067-0.045-0.154-0.107-0.272-0.182c-0.89-0.568-2.714-1.556-4.956-1.823c-3.236-0.386-6.117,0.897-8.111,3.608l-0.117,0.175
		c-1.564,2.454-2.616,6.57-0.534,9.729l-32.436,50.885c-2.262,3.132-9.07,11.581-14.202,14.195l-0.071,0.037l-69.421,39.919
		c-0.192,0.11-2.234,1.285-4.3,2.974c-3.371,2.748-5.04,5.367-5.11,8c-0.037,1.334,0.365,3.865,3.435,5.822l105.099,66.992
		c3.07,1.957,5.53,1.252,6.726,0.656C597.583,252.498,599.252,249.879,600.322,245.665z M561.811,134.859
		c7.578-3.912,16.076-15.669,16.436-16.168l35.629-55.889l-2.66-1.695c-0.417-0.267-0.68-0.506-0.535-1.417
		c0.117-0.727,0.467-1.453,0.645-1.767c0.62-0.799,1.266-1.082,2.197-0.973c0.844,0.097,1.747,0.519,2.309,0.876
		c0.033,0.021,0.056,0.036,0.074,0.047l0.041,0.035l32.637,20.802l0.055,0.038l0.094,0.049c0.016,0.011,0.041,0.026,0.072,0.047
		c0.563,0.359,1.325,0.999,1.771,1.724c0.492,0.798,0.51,1.503,0.047,2.403c-0.21,0.292-0.721,0.917-1.33,1.33
		c-0.766,0.516-1.094,0.379-1.51,0.113l-2.663-1.697l-35.532,55.745l-0.09,0.148c-0.3,0.536-7.369,13.205-7.717,21.726
		l-1.938,22.466l-57.58-36.702L561.811,134.859z"/>
	<g>
		
			<rect x="598.017" y="79.599" transform="matrix(0.8432 0.5376 -0.5376 0.8432 167.3936 -301.1802)" fill="#FFFFFF" width="3.986" height="113.547"/>
		
			<rect x="570.093" y="162.873" transform="matrix(0.8433 0.5375 -0.5375 0.8433 178.4384 -283.7437)" fill="#FFFFFF" width="11.28" height="2.418"/>
		
			<rect x="575.415" y="154.636" transform="matrix(0.8433 0.5375 -0.5375 0.8433 174.8015 -287.841)" fill="#FFFFFF" width="11.155" height="2.389"/>
		
			<rect x="581.231" y="145.511" transform="matrix(0.8432 0.5375 -0.5375 0.8432 170.8415 -292.4275)" fill="#FFFFFF" width="11.156" height="2.391"/>
		
			<rect x="586.563" y="137.147" transform="matrix(0.8433 0.5375 -0.5375 0.8433 167.1603 -296.5848)" fill="#FFFFFF" width="11.157" height="2.389"/>
		
			<rect x="592.38" y="128.02" transform="matrix(0.8432 0.5376 -0.5376 0.8432 163.2028 -301.1782)" fill="#FFFFFF" width="11.156" height="2.389"/>
		
			<rect x="597.518" y="119.959" transform="matrix(0.8433 0.5375 -0.5375 0.8433 159.6398 -305.1668)" fill="#FFFFFF" width="11.157" height="2.391"/>
		
			<rect x="603.334" y="110.837" transform="matrix(0.8433 0.5375 -0.5375 0.8433 155.647 -309.7225)" fill="#FFFFFF" width="11.157" height="2.387"/>
		
			<rect x="608.859" y="102.168" transform="matrix(0.8433 0.5375 -0.5375 0.8433 151.8538 -314.0509)" fill="#FFFFFF" width="11.157" height="2.388"/>
		
			<rect x="614.677" y="93.039" transform="matrix(0.8433 0.5375 -0.5375 0.8433 147.8643 -318.6129)" fill="#FFFFFF" width="11.156" height="2.393"/>
	</g>
</g>
<g>
	<path opacity="0.1" fill="#FFFFFF" d="M607.348,276.652c8.181-17.299,29.027-24.759,46.326-16.581l101.179,47.844
		c17.298,8.181,24.761,29.029,16.58,46.326l-2.205,4.658c-8.178,17.301-29.023,24.76-46.321,16.581l-101.18-47.843
		c-17.302-8.181-24.758-29.026-16.581-46.326L607.348,276.652z"/>
	<path opacity="0.2" fill="#FFFFFF" d="M667.452,287.612c3.181-6.727,11.286-9.628,18.015-6.448l32.909,15.562
		c6.729,3.183,9.63,11.289,6.451,18.013l-15.701,33.203c-3.18,6.729-11.288,9.63-18.016,6.448l-32.908-15.56
		c-6.727-3.184-9.629-11.291-6.448-18.017L667.452,287.612z"/>
	<circle opacity="0.3" fill="#FFFFFF" cx="705.764" cy="326.039" r="5.251"/>
	<path opacity="0.3" fill="#FFFFFF" d="M683.545,315.532c1.238-2.623,4.367-3.741,6.991-2.502c2.619,1.238,3.741,4.366,2.502,6.986
		c-1.243,2.626-4.371,3.747-6.991,2.508C683.425,321.284,682.304,318.153,683.545,315.532z"/>
	<circle opacity="0.3" fill="#FFFFFF" cx="670.818" cy="309.513" r="5.249"/>
	<path opacity="0.3" fill="#FFFFFF" d="M692.758,341.268c1.235-2.62,4.367-3.741,6.989-2.502c2.622,1.24,3.742,4.371,2.502,6.988
		c-1.243,2.624-4.369,3.745-6.992,2.505C692.636,347.021,691.518,343.889,692.758,341.268z"/>
	<path opacity="0.3" fill="#FFFFFF" d="M675.283,333.004c1.238-2.62,4.369-3.74,6.988-2.502c2.622,1.24,3.742,4.369,2.506,6.993
		c-1.241,2.62-4.372,3.74-6.992,2.501C675.161,338.757,674.042,335.625,675.283,333.004z"/>
	<path opacity="0.3" fill="#FFFFFF" d="M657.81,324.744c1.238-2.622,4.367-3.744,6.991-2.5c2.617,1.236,3.74,4.365,2.498,6.985
		c-1.238,2.622-4.367,3.745-6.989,2.507C657.688,330.494,656.57,327.363,657.81,324.744z"/>
	<path opacity="0.3" fill="#FFFFFF" d="M709.282,306.323c1.236-2.624,4.369-3.743,6.989-2.502c2.621,1.236,3.738,4.365,2.5,6.986
		c-1.236,2.622-4.367,3.746-6.989,2.506S708.044,308.942,709.282,306.323z"/>
	<path opacity="0.3" fill="#FFFFFF" d="M691.808,298.058c1.238-2.62,4.368-3.742,6.989-2.502c2.62,1.24,3.743,4.369,2.502,6.989
		c-1.239,2.622-4.369,3.742-6.989,2.502C691.686,303.809,690.565,300.675,691.808,298.058z"/>
	<path opacity="0.3" fill="#FFFFFF" d="M674.332,289.796c1.24-2.621,4.371-3.74,6.993-2.502s3.739,4.368,2.501,6.989
		c-1.239,2.62-4.37,3.743-6.992,2.505C674.214,295.546,673.094,292.416,674.332,289.796z"/>
</g>
<path opacity="0.1" fill="#FFFFFF" d="M723.916,237.148c0,0,19.186-19.998,0.832-41.633c-18.357-21.638-35.296-11.525-35.296-11.525
	s13.097-14.64-5.259-36.276c-18.357-21.638-41.214-5.967-41.214-5.967s-17.149,9.235-17.136,40.583l-0.021,55.643l-0.358,0.305
	l0.359,0.06l-0.001,0.363l0.354-0.307l54.909,9.05C712.013,252.567,723.916,237.148,723.916,237.148z"/>
<g>
	<path opacity="0.1" fill="#F6F6F6" d="M343.783,400.813l-15.961,52.316c-0.739,2.424,0.64,5.012,3.063,5.75l64.981,19.824
		c2.424,0.738,5.011-0.639,5.75-3.063l11.507-37.722l4.406,1.343l3.359-11.013l-4.405-1.345l1.092-3.578
		c0.739-2.425-0.639-5.011-3.062-5.75l-64.982-19.824C347.11,397.012,344.522,398.39,343.783,400.813z"/>
	<path opacity="0.2" fill="#F6F6F6" d="M355.548,462.875l38.103,11.623c2.167,0.662,4.482-0.57,5.143-2.738l11.3-37.041l3.939,1.201
		l1.998-6.547l-3.939-1.2l0.976-3.202c0.662-2.167-0.572-4.481-2.738-5.141l-38.103-11.627L355.548,462.875z"/>
	
		<rect x="425.318" y="427.661" transform="matrix(0.2915 -0.9566 0.9566 0.2915 -114.7164 718.0046)" opacity="0.2" fill="#F6F6F6" width="4.03" height="17.562"/>
	<polygon opacity="0.2" fill="#F6F6F6" points="422.397,467.145 419.975,475.418 403.179,470.295 405.601,462.02 	"/>
</g>
<path opacity="0.1" fill="#FFFFFF" d="M389.502,145.369l-1.076-0.466l1.788-4.129c1.082-2.5-0.433-4.471-2.068-5.404l-0.358,0.606
	l0.281-0.649l-13.468-5.831c-1.33-0.576-2.57-0.629-3.693-0.159c-1.754,0.735-2.463,2.465-2.523,2.619l-1.557,3.597l-1.39-0.602
	c-16.177-6.845-20.452,0.253-24.547,9.715l-3.159,7.297c-4.096,9.462-5.283,17.904,9.716,24.547l24.065,10.417
	c15.215,6.279,20.452-0.253,24.547-9.715l3.159-7.297C403.313,160.454,405.195,152.004,389.502,145.369z M370.413,132.795
	c0.004-0.009,0.437-1.062,1.356-1.439c0.545-0.223,1.205-0.172,1.959,0.155l13.355,5.782c0.678,0.393,1.706,1.245,1.115,2.61
	l-1.787,4.129l-17.571-7.606L370.413,132.795z M376.914,167.568l-6.071-2.628l-2.629,6.074c-0.817,1.888-3.015,2.754-4.899,1.939
	c-1.891-0.819-2.757-3.011-1.939-4.899l2.629-6.074l-6.073-2.629c-1.891-0.818-2.753-3.009-1.937-4.895
	c0.817-1.887,3.004-2.757,4.895-1.939l6.073,2.629l2.629-6.074c0.818-1.89,3.009-2.759,4.901-1.94
	c1.884,0.815,2.756,3.011,1.938,4.901l-2.629,6.074l6.071,2.628c1.889,0.817,2.756,3.011,1.939,4.898
	C380.996,167.518,378.803,168.386,376.914,167.568z"/>
<path opacity="0.1" fill="#FFFFFF" d="M834.024,33.36l-3.027-1.311l5.027-11.616c3.044-7.032-1.217-12.578-5.819-15.204L829.2,6.935
	l0.791-1.827l-37.893-16.403c-3.741-1.62-7.23-1.77-10.388-0.448c-4.935,2.069-6.932,6.935-7.099,7.369l-4.383,10.119l-3.909-1.692
	c-45.511-19.258-57.539,0.713-69.062,27.331l-8.885,20.53c-11.522,26.62-14.863,50.371,27.334,69.06l67.704,29.308
	c42.805,17.666,57.536-0.713,69.059-27.333l8.885-20.528C872.881,75.8,878.175,52.027,834.024,33.36z M780.321-2.014
	c0.011-0.026,1.228-2.988,3.815-4.05c1.533-0.628,3.391-0.483,5.512,0.436l37.573,16.266c1.907,1.104,4.8,3.503,3.138,7.343
	l-5.027,11.617L775.9,8.199L780.321-2.014z M798.61,95.815l-17.078-7.393l-7.398,17.087c-2.3,5.312-8.481,7.749-13.784,5.455
	c-5.318-2.304-7.756-8.472-5.456-13.784l7.399-17.087l-17.087-7.396c-5.318-2.303-7.747-8.465-5.45-13.77
	c2.299-5.308,8.453-7.757,13.772-5.457l17.086,7.396l7.396-17.087c2.302-5.316,8.467-7.763,13.786-5.459
	c5.303,2.294,7.753,8.472,5.453,13.788l-7.398,17.087l17.084,7.395c5.313,2.299,7.753,8.471,5.456,13.779
	C810.095,95.673,803.924,98.116,798.61,95.815z"/>
<g opacity="0.1">
	<path fill="#FFFFFF" d="M675.982,388.596c-8.09-7.746-18.483-12.012-29.254-12.012c-10.273,0-19.688,3.932-26.521,11.073
		l-59.744,62.421c-14.433,15.087-12.912,40.064,3.395,55.68c8.101,7.744,18.49,12.012,29.268,12.012
		c10.264,0,19.681-3.932,26.511-11.066l59.747-62.423C693.817,429.188,692.29,404.211,675.982,388.596z M673.044,438.219
		l-28.937,30.236c-22.449-7.121-35.483-28.018-41.383-40.217l-35.936,34.182c-5.66,5.66-7.543,12.734-7.543,12.734
		c-4.716-7.544,4.242-16.51,4.242-16.51l36.34-37.006l26.721-27.92c5.159-5.396,12.326-8.367,20.18-8.367
		c8.502,0,16.74,3.399,23.193,9.576C682.742,407.201,684.144,426.623,673.044,438.219z"/>
	<g>
		<path fill="#FFFFFF" d="M750.367,481.287c-1.77-14.854-14.263-26.412-29.594-26.412h-12.268
			c-15.328,0-27.821,11.559-29.591,26.412H750.367z"/>
		<path fill="#FFFFFF" d="M679.059,489.773c2.377,14.169,14.607,24.994,29.447,24.994h12.268c14.844,0,27.074-10.825,29.447-24.994
			H679.059z"/>
	</g>
</g>
<g>
	<g>
		<g>
			<path opacity="0.1" fill="#FFFFFF" d="M818.077,323.935c-16.5,5.308-34.338-3.85-39.646-20.348l-31.032-96.503
				c-5.307-16.495,3.853-34.332,20.348-39.642l4.447-1.427c16.497-5.305,34.335,3.85,39.645,20.345l31.033,96.502
				c5.3,16.499-3.852,34.339-20.353,39.642L818.077,323.935z"/>
			<path opacity="0.2" fill="#FFFFFF" d="M827.352,234.612l-15.514-48.252c-5.31-16.495-23.147-25.65-39.645-20.345l-4.447,1.427
				c-16.495,5.31-25.654,23.146-20.348,39.642l15.516,48.251L827.352,234.612z"/>
		</g>
	</g>
</g>
<g opacity="0.1">
	<g>
		
			<rect x="796.212" y="354.156" transform="matrix(0.9265 0.3763 -0.3763 0.9265 204.8859 -271.3452)" fill="#FFFFFF" width="1.645" height="69.279"/>
		
			<rect x="784.184" y="407.769" transform="matrix(0.9263 0.3768 -0.3768 0.9263 211.9147 -266.2676)" fill="#FFFFFF" width="4.673" height="1.475"/>
		
			<rect x="786.461" y="402.247" transform="matrix(0.9262 0.3769 -0.3769 0.9262 210.0659 -267.5836)" fill="#FFFFFF" width="4.622" height="1.459"/>
		
			<rect x="788.949" y="396.134" transform="matrix(0.9261 0.3773 -0.3773 0.9261 208.2055 -269.2006)" fill="#FFFFFF" width="4.623" height="1.457"/>
		
			<rect x="791.231" y="390.525" transform="matrix(0.9263 0.3768 -0.3768 0.9263 205.894 -270.1529)" fill="#FFFFFF" width="4.624" height="1.457"/>
		
			<rect x="793.721" y="384.409" transform="matrix(0.9263 0.3768 -0.3768 0.9263 203.8256 -271.5884)" fill="#FFFFFF" width="4.623" height="1.459"/>
		
			<rect x="795.917" y="379.009" transform="matrix(0.9263 0.3768 -0.3768 0.9263 201.9005 -272.7671)" fill="#FFFFFF" width="4.624" height="1.458"/>
		
			<rect x="798.407" y="372.894" transform="matrix(0.9262 0.3769 -0.3769 0.9262 199.8824 -274.251)" fill="#FFFFFF" width="4.622" height="1.456"/>
		
			<rect x="800.771" y="367.083" transform="matrix(0.9263 0.3768 -0.3768 0.9263 197.7645 -275.4747)" fill="#FFFFFF" width="4.624" height="1.458"/>
		
			<rect x="803.26" y="360.967" transform="matrix(0.9262 0.3769 -0.3769 0.9262 195.7452 -276.9601)" fill="#FFFFFF" width="4.622" height="1.457"/>
	</g>
	<path fill="#FFFFFF" d="M823.017,353.857c2.241-6.018-0.228-8.871-2.038-9.606c-0.038-0.017-0.074-0.028-0.094-0.036l-28.455-11.58
		c-0.022-0.008-0.054-0.023-0.092-0.039c-1.81-0.736-5.569-0.418-8.172,5.453l-0.072,0.164l-0.055,0.167
		c-0.676,2.071-1.184,5.98,0.824,8.01l-32.521,79.919c-0.1,0.244-2.438,6.065-2.924,12.714c-0.428,5.918,0.57,13.525,7.387,17.21
		l-0.022,0.057l1.456,0.624l0.051,0.022l0.117,0.046l0.132,0.056l1.526,0.585l0.023-0.053c7.453,2.121,13.474-2.63,17.303-7.164
		c4.296-5.099,6.682-10.899,6.781-11.145l32.521-79.919c2.863-0.046,5.225-3.201,6.186-5.157l0.078-0.158L823.017,353.857z
		 M819.008,354.034c-0.728,0.735-1.387,0.923-2.136,0.617l-1.486-0.604l-17.132,42.099l-25.884-10.532l17.132-42.1l-1.487-0.604
		c-0.753-0.307-1.091-0.9-1.104-1.937c0.002-0.717,0.16-1.418,0.238-1.716c1.252-2.673,2.666-2.582,3.406-2.279l28.64,11.654
		c0.745,0.303,1.817,1.223,0.849,4.011C819.891,352.912,819.518,353.524,819.008,354.034z"/>
</g>
<path opacity="0.1" fill="#FFFFFF" d="M966.202,170.612c-25.945-29.612-51.158-24.218-51.158-24.218
	c-5.593-0.382-6.211-0.425-10.473,5.278c-4.261,5.702,1.467,15.082,3.012,18.06c0.479,0.923,1.175,2.923,1.905,5.243
	c-4.349,0.472-8.342-1.055-11.186-2.668c-5.478-12.742-12.833-35.297-12.833-35.297l-8.223,3.433c0,0,9.733,19.867,14.948,33.456
	c-0.911,3.438-3.142,6.653-5.198,9.037c-0.848-1.655-1.516-3.065-1.775-3.87c-1.031-3.191-3.672-13.86-10.722-14.84
	c-7.052-0.982-7.457-0.511-11.117,3.734c0,0-21.567,14.134-18.754,53.403c2.812,39.271,12.788,59.552,27.4,61.297
	c14.611,1.751,35.903-10.155,42.236-18.835c6.336-8.684-0.525-17.891-2.501-21.896c-1.974-4.004-5.021-14.2-5.645-17.864
	c-0.404-2.374-4.867-12.953-8.391-20.74c1.935-6.313,6.103-7.881,6.103-7.881c4.884-2.232,9.832-0.131,12.748,1.657
	c3.013,7.77,6.98,17.288,8.301,19.133c2.168,3.017,7.272,12.355,8.732,16.576c1.459,4.22,3.18,15.574,13.807,17.174
	c10.631,1.6,34.065-5.164,43.095-16.783C999.551,221.582,992.146,200.229,966.202,170.612z"/>
<g>
	<g>
		<g>
			<path opacity="0.1" fill="#FFFFFF" d="M657.691,46.936c-5.197,1.672-10.818-1.213-12.49-6.411l-9.776-30.402
				c-1.671-5.197,1.214-10.816,6.411-12.488l1.4-0.45c5.197-1.671,10.817,1.213,12.49,6.41l9.776,30.403
				c1.669,5.197-1.214,10.817-6.412,12.488L657.691,46.936z"/>
			<path opacity="0.2" fill="#FFFFFF" d="M660.613,18.795l-4.887-15.202c-1.673-5.197-7.293-8.081-12.49-6.41l-1.4,0.45
				c-5.197,1.672-8.082,7.292-6.411,12.488l4.888,15.201L660.613,18.795z"/>
		</g>
	</g>
</g>
<g opacity="0.1">
	<g>
		<path fill="#FFFFFF" d="M956.188,308.817l-70.614,41.341c-6.295,3.686-14.415,1.563-18.099-4.731l-6.493-11.094
			c-3.687-6.295-1.565-14.413,4.732-18.099l70.611-41.341c6.295-3.686,14.415-1.563,18.099,4.732l6.493,11.093
			C964.604,297.014,962.482,305.132,956.188,308.817z M868.258,320.581c-3.896,2.281-5.213,7.311-2.93,11.206l6.495,11.094
			c2.28,3.897,7.31,5.212,11.205,2.931l70.614-41.342c3.896-2.28,5.213-7.309,2.93-11.206l-6.495-11.094
			c-2.28-3.897-7.31-5.211-11.206-2.931L868.258,320.581z"/>
	</g>
	
		<rect x="923.835" y="292.052" transform="matrix(-0.863 0.5051 -0.5051 -0.863 1879.0912 98.7187)" fill="#FFFFFF" width="4.655" height="24.118"/>
	<circle fill="#FFFFFF" cx="940.189" cy="306.272" r="1.54"/>
	<circle fill="#FFFFFF" cx="935.659" cy="298.536" r="1.539"/>
	<circle fill="#FFFFFF" cx="946.636" cy="297.027" r="1.539"/>
	<circle fill="#FFFFFF" cx="942.742" cy="290.376" r="1.54"/>
	<path fill="#FFFFFF" d="M930.44,292.664c0.43,0.734,1.37,0.979,2.103,0.551c0.737-0.43,0.983-1.372,0.554-2.105
		c-0.43-0.735-1.373-0.981-2.107-0.551C930.254,290.988,930.009,291.929,930.44,292.664z"/>
	
		<rect x="892.588" y="310.344" transform="matrix(0.8629 -0.5053 0.5053 0.8629 -40.2558 496.3939)" fill="#FFFFFF" width="4.656" height="24.119"/>
	<path fill="#FFFFFF" d="M891.265,334.917c0.43,0.732,0.181,1.675-0.551,2.105c-0.735,0.429-1.679,0.183-2.105-0.549
		c-0.432-0.736-0.187-1.679,0.552-2.109C889.892,333.937,890.832,334.184,891.265,334.917z"/>
	<circle fill="#FFFFFF" cx="885.405" cy="327.958" r="1.538"/>
	<path fill="#FFFFFF" d="M880.048,336.012c0.427,0.734,0.181,1.677-0.551,2.106c-0.734,0.431-1.679,0.184-2.107-0.552
		c-0.43-0.732-0.184-1.675,0.551-2.106C878.672,335.031,879.618,335.278,880.048,336.012z"/>
	<path fill="#FFFFFF" d="M876.154,329.362c0.427,0.734,0.182,1.677-0.551,2.105c-0.734,0.43-1.678,0.185-2.107-0.551
		c-0.43-0.732-0.184-1.675,0.551-2.104S875.726,328.627,876.154,329.362z"/>
	<path fill="#FFFFFF" d="M882.842,320.531c0.427,0.733,0.182,1.676-0.551,2.104c-0.734,0.43-1.678,0.185-2.107-0.549
		c-0.43-0.734-0.184-1.679,0.551-2.106C881.469,319.551,882.413,319.797,882.842,320.531z"/>
</g>
<g opacity="0.1">
	<g>
		<path fill="#FFFFFF" d="M735.168,142.428c-5.162-6.523-14.448-8.365-21.715-3.902l-5.814,3.572
			c-7.265,4.462-9.82,13.579-6.336,21.132L735.168,142.428z"/>
		<path fill="#FFFFFF" d="M703.842,167.211c5.252,6.022,14.2,7.593,21.233,3.273l5.815-3.572c7.034-4.321,9.679-13.013,6.68-20.418
			L703.842,167.211z"/>
	</g>
</g>
<g>
	<path opacity="0.1" fill="#F6F6F6" d="M838.99,357.785l-15.961,52.316c-0.738,2.424,0.641,5.012,3.063,5.75l64.981,19.824
		c2.425,0.738,5.011-0.639,5.751-3.063l11.506-37.722l4.406,1.343l3.359-11.013l-4.404-1.345l1.092-3.578
		c0.739-2.425-0.639-5.011-3.062-5.75l-64.981-19.824C842.318,353.984,839.73,355.362,838.99,357.785z"/>
	<path opacity="0.2" fill="#F6F6F6" d="M850.756,419.848l38.104,11.623c2.166,0.662,4.481-0.57,5.143-2.738l11.3-37.041l3.939,1.201
		l1.997-6.547l-3.939-1.2l0.977-3.202c0.662-2.167-0.572-4.481-2.738-5.141l-38.104-11.627L850.756,419.848z"/>
	
		<rect x="920.526" y="384.634" transform="matrix(0.2917 -0.9565 0.9565 0.2917 277.1297 1161.0741)" opacity="0.2" fill="#F6F6F6" width="4.031" height="17.561"/>
	<polygon opacity="0.2" fill="#F6F6F6" points="917.605,424.117 915.184,432.391 898.387,427.268 900.809,418.992 	"/>
</g>
<path opacity="0.1" fill="#FDFDFD" d="M876.141,471.59c2.212-9.962-0.756-16.1-0.756-16.1s-7.174-19.764-27.252-14.647
	c-20.079,5.116-18.728,20.014-18.728,20.014s-5.553-13.826-25.631-8.71c-20.077,5.116-16.92,25.904-16.92,25.904
	s0.323,6.585,6.714,14.114l-7.212,1.839l0.772,3.029l8.872-2.261c3.002,2.934,6.983,5.911,12.277,8.618l36.767,18.841l0.087,0.344
	l0.152-0.223l0.24,0.123l-0.091-0.343l23.268-34.14c3.213-4.704,5.247-9.05,6.496-12.936l9.57-2.439l-0.772-3.03L876.141,471.59z
	 M875.193,475.059l-28.955,7.379l-4.147-5.442l-5.609,26.176l-12.302-22.669l-0.771,7.286l-27.401,6.982
	c-0.9-0.877-1.69-1.746-2.422-2.609l27.051-6.893l1.557-14.755l13.036,24.023l5.276-24.618l6.862,9.003l28.765-7.33
	C875.887,472.702,875.58,473.856,875.193,475.059z"/>
<g opacity="0.1">
	<g>
		<path fill="#FFFFFF" d="M487.607,465.637c5.279-6.428,5.109-15.895-0.794-22.048l-4.724-4.925
			c-5.902-6.152-15.353-6.715-21.996-1.707L487.607,465.637z"/>
		<path fill="#FFFFFF" d="M456.742,440.283c-4.771,6.41-4.408,15.488,1.306,21.443l4.725,4.926
			c5.715,5.957,14.771,6.697,21.371,2.194L456.742,440.283z"/>
	</g>
</g>
<g>
	<g>
		<g>
			<path opacity="0.1" fill="#FFFFFF" d="M912.607,482.017c-6.357-5.96-6.684-16.038-0.723-22.396l34.859-37.188
				c5.959-6.356,16.035-6.681,22.395-0.724l1.713,1.607c6.357,5.959,6.684,16.035,0.725,22.395l-34.861,37.188
				c-5.96,6.355-16.035,6.684-22.394,0.721L912.607,482.017z"/>
			<path opacity="0.2" fill="#FFFFFF" d="M954.145,464.303l17.432-18.592c5.959-6.359,5.633-16.436-0.725-22.395l-1.713-1.607
				c-6.359-5.957-16.436-5.633-22.395,0.724l-17.43,18.593L954.145,464.303z"/>
		</g>
	</g>
</g>
<g opacity="0.1">
	<path fill="#FFFFFF" d="M969.576,335.271l-0.704,3.491l-3.491-0.704c-1.088-0.219-2.141,0.484-2.359,1.568
		c-0.219,1.085,0.48,2.141,1.567,2.36l3.491,0.704l-0.705,3.491c-0.219,1.085,0.483,2.144,1.57,2.362
		c1.082,0.219,2.143-0.484,2.361-1.568l0.704-3.492l3.491,0.703c1.085,0.22,2.143-0.482,2.361-1.567
		c0.219-1.084-0.484-2.142-1.569-2.36l-3.49-0.704l0.704-3.491c0.219-1.087-0.487-2.145-1.568-2.363
		C970.852,333.482,969.795,334.186,969.576,335.271z"/>
	
		<ellipse transform="matrix(0.1978 -0.9802 0.9802 0.1978 415.1169 1231.874)" fill="#FFFFFF" cx="960.179" cy="362.319" rx="1.923" ry="3.498"/>
	
		<ellipse transform="matrix(0.1978 -0.9802 0.9802 0.1978 423.397 1247.517)" fill="#FFFFFF" cx="973.876" cy="365.082" rx="1.923" ry="3.497"/>
	<path fill="#FFFFFF" d="M988.512,360.496l5.899-18.324l-0.456-0.463c-5.86-5.928-12.756-9.724-20.499-11.285
		c-12.313-2.483-22.314,1.539-22.734,1.711l-0.614,0.252l-1.362,17.831c-2.399,2.599-10.022,12.342-6.729,28.346l13.157,2.653
		c2.214,1.751,4.813,3.009,7.706,3.592c2.892,0.583,5.775,0.432,8.496-0.324l13.04,2.629
		C984.415,387.113,994.225,370.928,988.512,360.496z M963.348,382.485c-9.609-1.938-15.656-12.157-13.504-22.825
		c0.337-1.672,0.855-3.257,1.527-4.732c3.137,0.84,11.243,2.248,16.164-3.69c0.139,0.042,0.279,0.082,0.418,0.126
		c1.764,1.98,12.072,13.313,17.025,12.983c-0.072,0.771-0.181,1.55-0.338,2.33C982.489,377.345,972.955,384.423,963.348,382.485z
		 M986.576,359.489c-3.11-2.618-11.586-9.087-21.5-11.087c-5.086-1.025-9.82-0.711-14.107,0.935l1.182-15.438
		c2.312-0.803,10.896-3.381,20.881-1.367c7.114,1.436,13.48,4.875,18.934,10.229L986.576,359.489z"/>
</g>
<path opacity="0.1" fill="#FFFFFF" d="M478.014,30.458l-2.039,10.115l-10.115-2.039c-3.15-0.636-6.202,1.402-6.835,4.543
	c-0.634,3.143,1.391,6.203,4.541,6.839l10.113,2.04l-2.039,10.115c-0.635,3.145,1.398,6.208,4.549,6.844
	c3.135,0.632,6.207-1.401,6.842-4.546l2.039-10.116l10.115,2.039c3.143,0.635,6.207-1.4,6.841-4.543
	c0.633-3.141-1.404-6.205-4.546-6.839l-10.113-2.04l2.039-10.115c0.635-3.148-1.41-6.215-4.543-6.848
	C481.709,25.272,478.649,27.31,478.014,30.458z"/>
<path opacity="0.1" fill="#FFFFFF" d="M201.966,456.722l10.037,15.106l-15.106,10.037c-4.706,3.125-5.965,9.451-2.849,14.142
	c3.118,4.694,9.438,5.981,14.143,2.857l15.105-10.034l10.038,15.106c3.119,4.697,9.454,5.978,14.159,2.852
	c4.681-3.11,5.973-9.456,2.854-14.153l-10.039-15.107l15.106-10.037c4.694-3.117,5.973-9.455,2.856-14.149
	c-3.116-4.69-9.457-5.968-14.15-2.849l-15.105,10.033l-10.038-15.105c-3.124-4.703-9.477-5.973-14.157-2.865
	C200.114,445.684,198.841,452.02,201.966,456.722z"/>
<path opacity="0.1" fill="#FFFFFF" d="M214.351,15.683l-2.039,10.115l-10.115-2.039c-3.15-0.636-6.202,1.402-6.835,4.543
	c-0.634,3.143,1.391,6.203,4.541,6.839l10.113,2.04l-2.039,10.115c-0.635,3.145,1.398,6.208,4.549,6.844
	c3.135,0.632,6.207-1.401,6.842-4.546l2.039-10.116l10.115,2.039c3.143,0.635,6.207-1.4,6.841-4.543
	c0.633-3.141-1.404-6.205-4.546-6.839l-10.113-2.04l2.039-10.115c0.635-3.148-1.41-6.215-4.543-6.848
	C218.046,10.497,214.986,12.534,214.351,15.683z"/>
<g opacity="0.1">
	<path fill="#FFFFFF" d="M936.364,9.534c-7.6-1.862-15.376-0.814-21.892,2.945c-6.217,3.587-10.538,9.251-12.179,15.958
		l-14.354,58.62c-3.466,14.167,6.175,28.747,21.491,32.501c7.604,1.856,15.38,0.812,21.899-2.951
		c6.209-3.583,10.534-9.25,12.175-15.95l14.353-58.622C961.325,27.866,951.681,13.287,936.364,9.534z M951.908,40.581l-6.95,28.394
		c-16.066,3.529-31.247-4.563-39.074-9.884l-9.809,33.225c-1.447,5.4-0.117,10.336-0.117,10.336
		c-5.486-2.917-3.197-11.469-3.197-11.469l9.065-35.074l6.42-26.219c1.236-5.066,4.536-9.366,9.287-12.108
		c5.144-2.967,11.313-3.787,17.375-2.303C946.948,18.43,954.576,29.69,951.908,40.581z"/>
	<g>
		<path fill="#FFFFFF" d="M1013.725,39.642c-6.255-8.368-17.85-11-27.124-5.648l-7.424,4.283
			c-9.271,5.351-12.794,16.706-8.681,26.309L1013.725,39.642z"/>
		<path fill="#FFFFFF" d="M973.546,69.67c6.385,7.742,17.563,10.022,26.54,4.841l7.423-4.284c8.979-5.181,12.6-16,9.089-25.4
			L973.546,69.67z"/>
	</g>
</g>
<g opacity="0.1">
	<g>
		<path fill="#FFFFFF" d="M590.886,17.98c-5.162-6.523-14.448-8.365-21.715-3.902l-5.814,3.572
			c-7.265,4.462-9.82,13.579-6.336,21.132L590.886,17.98z"/>
		<path fill="#FFFFFF" d="M559.56,42.764c5.252,6.022,14.2,7.593,21.233,3.273l5.815-3.572c7.034-4.321,9.679-13.013,6.68-20.418
			L559.56,42.764z"/>
	</g>
</g>
</svg>
