<?xml version="1.0" encoding="UTF-8" standalone="no"?>
<!-- Generator: Adobe Illustrator 16.0.0, SVG Export Plug-In . SVG Version: 6.00 Build 0)  -->

<svg
   xmlns:dc="http://purl.org/dc/elements/1.1/"
   xmlns:cc="http://creativecommons.org/ns#"
   xmlns:rdf="http://www.w3.org/1999/02/22-rdf-syntax-ns#"
   xmlns:svg="http://www.w3.org/2000/svg"
   xmlns="http://www.w3.org/2000/svg"
   xmlns:sodipodi="http://sodipodi.sourceforge.net/DTD/sodipodi-0.dtd"
   xmlns:inkscape="http://www.inkscape.org/namespaces/inkscape"
   version="1.1"
   id="Capa_1"
   x="0px"
   y="0px"
   width="300px"
   height="300px"
   viewBox="0 0 300 300"
   enable-background="new 0 0 300 300"
   xml:space="preserve"
   inkscape:version="0.91 r13725"
   sodipodi:docname="cancer-gastrico.svg"><metadata
     id="metadata17"><rdf:RDF><cc:Work
         rdf:about=""><dc:format>image/svg+xml</dc:format><dc:type
           rdf:resource="http://purl.org/dc/dcmitype/StillImage" /></cc:Work></rdf:RDF></metadata><defs
     id="defs15" /><sodipodi:namedview
     pagecolor="#ffffff"
     bordercolor="#666666"
     borderopacity="1"
     objecttolerance="10"
     gridtolerance="10"
     guidetolerance="10"
     inkscape:pageopacity="0"
     inkscape:pageshadow="2"
     inkscape:window-width="1920"
     inkscape:window-height="1052"
     id="namedview13"
     showgrid="false"
     inkscape:zoom="3.1466667"
     inkscape:cx="195.72607"
     inkscape:cy="157.15682"
     inkscape:window-x="0"
     inkscape:window-y="0"
     inkscape:window-maximized="1"
     inkscape:current-layer="g3" /><g
     id="g3"><circle
       id="XMLID_39_"
       fill="#cc3333"
       stroke="#FFFFFF"
       stroke-miterlimit="10"
       cx="150.11"
       cy="150.365"
       r="147.5" /><path
       id="XMLID_37_"
       fill="#727171"
       opacity="0.5"
       d="M149.856,2.865v295.001c81.461,0,147.5-66.038,147.5-147.501   C297.355,68.905,231.317,2.865,149.856,2.865z"
       style="fill:#8f3333;fill-opacity:1" /><g
       id="XMLID_34_"
       opacity="0.1"><path
         fill="#030104"
         d="M244.658,119.106c-12.845-13.733-31.23-14.629-42.341-13.625c-1.02-1.039-2.396-2.096-4.127-3.601    c-4.134-3.6-11.155-13.321-12.724-14.89s-4.705-2.442-10.63,0.697c-5.926,3.137-9.585,9.236-7.669,11.676    s9.063,10.458,9.587,13.071c0.311,1.556,1.176,3.294,1.827,4.449c-5.795,8.49-4.08,19.282-12.156,29.281    c-11.733,14.527-34.645,2.794-67.126,5.588c-32.48,2.795-44.226,76.385-44.226,76.385s6.381,5.955,8.868,6.427    c6.528,1.229,13.663-2.215,12.294-2.448c0,0,7.489-55.22,27.046-47.954c19.558,7.266,48.057,42.47,112.316,26.824    C279.861,195.336,264.216,140.016,244.658,119.106z"
         id="path8" /></g><g
       id="XMLID_7_"><path
         fill="#EFEAE5"
         d="M236.093,108.007c-12.843-13.731-31.229-14.627-42.339-13.625c-1.021-1.038-2.397-2.094-4.127-3.6    c-4.136-3.6-11.153-13.323-12.722-14.892c-1.568-1.568-4.705-2.44-10.633,0.697c-5.925,3.138-9.586,9.237-7.668,11.677    s9.063,10.457,9.585,13.071c0.312,1.556,1.178,3.292,1.827,4.447c-5.795,8.492-4.078,19.284-12.154,29.283    c-11.734,14.528-34.645,2.792-67.125,5.587c-32.481,2.794-44.227,76.386-44.227,76.386s6.381,5.955,8.868,6.424    c6.528,1.229,13.663-2.212,12.294-2.445c0,0,7.488-55.22,27.046-47.954c19.557,7.266,48.056,42.47,112.318,26.82    C271.297,184.238,255.65,128.918,236.093,108.007z"
         id="path11" /></g></g></svg>