<?xml version="1.0" encoding="utf-8"?>
<!-- Generator: Adobe Illustrator 16.0.0, SVG Export Plug-In . SVG Version: 6.00 Build 0)  -->
<!DOCTYPE svg PUBLIC "-//W3C//DTD SVG 1.1//EN" "http://www.w3.org/Graphics/SVG/1.1/DTD/svg11.dtd">
<svg version="1.1" id="Capa_1" xmlns="http://www.w3.org/2000/svg" xmlns:xlink="http://www.w3.org/1999/xlink" x="0px" y="0px"
	 width="300px" height="300px" viewBox="0 0 300 300" enable-background="new 0 0 300 300" xml:space="preserve">
<g>
	<circle id="XMLID_74_" fill="#B1D0BE" cx="150.322" cy="149.916" r="147.5"/>
	<path id="XMLID_73_" opacity="0.8" fill="#81b8ae" d="M150.069,2.348v295c81.461,0,147.498-66.038,147.498-147.501
		C297.566,68.387,231.53,2.348,150.069,2.348z"/>
	<path id="XMLID_72_" opacity="0.1" fill="#030104" d="M240.952,177.183c-0.32-0.402-0.493-1.047-0.523-1.671
		c0.008-0.203,0.03-0.395,0.07-0.569c0.621-2.811,1.028-5.61,0.999-8.396c0.009-2.724-0.392-5.438-1.407-8.146
		c-0.062-0.167-0.096-0.355-0.107-0.554c0.021-0.314,0.093-0.627,0.209-0.879c1.333-2.852,1.953-5.719,1.922-8.609
		c0.018-2.469-0.447-4.955-1.357-7.47c-0.09-0.247-0.151-0.551-0.17-0.854c0.019-0.307,0.084-0.593,0.216-0.802
		c2.435-3.773,3.567-7.623,3.515-11.556c0.015-2.978-0.655-5.999-1.962-9.07c4.418-4.045,6.228-8.728,6.193-13.23
		c0.051-3.919-1.306-7.718-3.569-10.855c-0.741-1.026-1.268-2.438-1.31-3.693c-0.227-6.873-5.479-14.426-11.866-15.877
		c-2.905-0.659-5.717-1.65-8.582-2.242c-9.351-1.943-16.732,2.126-22.987,8.63c-0.921,0.956-1.568,1.224-2.822,1.245
		c-7.111,0.118-13.381,2.075-17.546,8.445c-0.401,0.614-1.399,0.911-2.181,1.19c-2.583,0.924-5.178,1.827-7.805,2.611
		c-0.758,0.227-1.839,0.349-2.44-0.021c-3.464-2.121-7.028-3.387-11.185-2.56c-0.76,0.154-1.985-0.286-2.492-0.882
		c-3.279-3.877-7.461-5.649-12.446-5.939c-0.798-0.045-1.834-0.603-2.284-1.255c-3.784-5.475-8.848-8.313-15.587-8.104
		c-0.945,0.027-2.087-0.279-2.837-0.834c-8.478-6.287-20.172-5.537-27.811,1.828c-0.495,0.477-1.206,0.756-1.853,1.049
		c-5.877,2.661-9.304,7.139-9.686,13.614c-0.151,2.563-0.579,4.509-2.461,6.65c-4.483,5.099-5.384,11.379-4.016,17.997
		c0.152,0.736,0.304,1.681-0.02,2.267c-2.587,4.704-3.511,9.687-2.39,14.91c0.545,2.546,0.097,4.429-1.255,6.748
		c-3.109,5.321-2.489,10.981,0.099,16.431c-5.45,6.437-4.782,15.026-0.372,21.164c0.532,0.743,0.878,1.704,1.035,2.61
		c1.036,5.99,4.093,10.474,9.684,13.024c10.891,4.971,21.32,3.421,31.352-2.468c2.536-1.492,5.052-0.376,5.301,2.633
		c0.282,3.431,0.136,6.922,0.715,10.298c1.392,8.114,8.46,12.01,13.341,17.563c-0.329-4.265-1.083-8.362-1.43-12.493
		c-0.325-3.886-0.251-7.805-0.297-11.707c-0.057-4.651,0.722-9.495-1.915-13.669c-1.307-2.068-3.398-3.641-5.192-5.499
		c3.633-6.2,3.866-13.224-0.144-18.897c-0.279-0.396-0.266-1.224-0.056-1.706c2.689-6.165,1.838-11.935-1.748-17.47
		c-0.413-0.638-0.766-1.447-0.779-2.186c-0.076-3.948-0.036-7.898-0.036-11.891c-0.124,0.013,0.078-0.077,0.178-0.011
		c0.685,0.447,1.36,0.911,2.019,1.395c4.148,3.051,8.728,5.408,13.837,5.778c3.98,0.282,7.219,0.938,10.532,3.647
		c4.808,3.934,10.682,3.247,16.346,1.287c0.734-0.253,1.793-0.463,2.375-0.129c5.35,3.08,10.904,2.877,15.89-0.101
		c3.677-2.193,6.926-3.738,11.289-2.622c1.745,0.446,3.798-0.294,5.649-0.485c0.059,0.195,0.118,0.391,0.179,0.583
		c-0.029,0.021-0.058,0.042-0.085,0.063c0.448,1.447,0.898,2.734,1.197,4.056c0.045,0.195,0.074,0.412,0.085,0.635
		c-0.014,0.362-0.09,0.719-0.25,0.977c-1.904,3.051-2.752,6.13-2.696,9.241c-0.014,2.777,0.698,5.58,2.029,8.416
		c0.171,0.367,0.318,0.836,0.354,1.274c-0.011,0.14-0.035,0.276-0.084,0.395c-0.864,2.205-1.196,4.384-1.166,6.559
		c-0.013,2.738,0.563,5.462,1.392,8.204c0.063,0.208,0.097,0.432,0.107,0.665c-0.023,0.687-0.212,1.422-0.403,2.067
		c-0.715,2.396-2.086,4.706-2.269,7.121c-0.215,2.835-1.388,4.251-3.921,4.912c-7.107-5.063-13.517-5.202-21.24-0.561
		c-0.649,0.391-1.699,0.498-2.44,0.292c-5.747-1.575-11.021-0.501-15.931,2.679c-8.056,5.225-13.039,15.236-12.938,24.955
		c-0.003,1.827,0.17,3.644,0.538,5.417c0.1,0.485,0.148,0.987,0.16,1.496c-0.007,0.553-0.062,1.1-0.158,1.626
		c-0.313,1.736-1.188,3.404-1.301,5.138c-0.093,1.433-0.13,2.854-0.119,4.271c0.021,9.551,2.338,18.729,5.697,27.684
		c1.638,4.366,3.528,8.667,6.998,11.988c2.54,2.436,5.463,2.495,8.053,0.134c0.899-0.823,1.862-1.716,2.386-2.779
		c2.433-4.966,5.188-9.84,6.956-15.044c2.668-7.847,4.606-15.936,6.927-24.179c4.836,0.687,9.604,0.236,14.091-1.796
		c1.39-0.632,2.271-0.37,3.242,0.502c8.626,7.711,20.979,4.628,27.583-4.074c0.589-0.773,1.5-1.428,2.4-1.815
		c8.206-3.515,13.229-9.572,14.956-18.359c0.132-0.678,0.413-1.445,0.879-1.926c3.528-3.616,5.136-9.241,5.076-14.775
		C245.085,185.674,243.645,180.554,240.952,177.183z"/>
	<path id="XMLID_71_" fill="#FFFFFF" d="M233.333,164.932c-0.319-0.405-0.494-1.05-0.523-1.674c0.008-0.199,0.029-0.39,0.067-0.564
		c0.624-2.814,1.027-5.611,1.001-8.397c0.008-2.727-0.392-5.439-1.406-8.149c-0.063-0.165-0.097-0.356-0.108-0.555
		c0.018-0.314,0.092-0.624,0.21-0.875c1.331-2.853,1.953-5.719,1.922-8.61c0.015-2.472-0.447-4.959-1.36-7.47
		c-0.092-0.247-0.15-0.55-0.167-0.857c0.015-0.307,0.083-0.592,0.216-0.798c2.433-3.773,3.567-7.626,3.516-11.561
		c0.014-2.974-0.658-5.998-1.963-9.066c4.418-4.048,6.227-8.732,6.189-13.23c0.055-3.923-1.302-7.721-3.568-10.855
		c-0.738-1.025-1.267-2.441-1.307-3.693c-0.228-6.876-5.48-14.426-11.868-15.877c-2.905-0.663-5.715-1.649-8.583-2.246
		c-9.352-1.942-16.729,2.127-22.988,8.634c-0.917,0.956-1.566,1.22-2.819,1.241c-7.112,0.119-13.383,2.078-17.547,8.446
		c-0.4,0.614-1.397,0.914-2.179,1.193c-2.583,0.92-5.178,1.824-7.807,2.608c-0.76,0.227-1.837,0.349-2.439-0.018
		c-3.465-2.12-7.029-3.389-11.185-2.559c-0.76,0.149-1.987-0.29-2.49-0.882c-3.281-3.882-7.464-5.653-12.449-5.939
		c-0.796-0.049-1.833-0.607-2.283-1.255c-3.783-5.475-8.848-8.317-15.587-8.107c-0.945,0.032-2.087-0.276-2.836-0.833
		c-8.478-6.287-20.172-5.537-27.811,1.827c-0.495,0.478-1.208,0.756-1.853,1.05c-5.878,2.66-9.304,7.142-9.686,13.617
		c-0.15,2.56-0.579,4.509-2.462,6.646c-4.483,5.102-5.383,11.382-4.016,18c0.153,0.732,0.304,1.678-0.019,2.267
		c-2.588,4.701-3.511,9.687-2.391,14.907c0.546,2.549,0.098,4.432-1.256,6.748c-3.109,5.325-2.489,10.985,0.1,16.431
		c-5.449,6.437-4.781,15.026-0.371,21.166c0.532,0.741,0.877,1.703,1.035,2.61c1.036,5.99,4.093,10.474,9.684,13.024
		c10.891,4.972,21.319,3.421,31.351-2.47c2.538-1.489,5.053-0.377,5.302,2.633c0.283,3.432,0.136,6.925,0.715,10.297
		c1.393,8.115,8.46,12.011,13.342,17.569c-0.33-4.266-1.083-8.362-1.43-12.499c-0.325-3.881-0.252-7.801-0.299-11.706
		c-0.055-4.652,0.724-9.492-1.914-13.669c-1.305-2.068-3.397-3.641-5.192-5.497c3.633-6.202,3.867-13.223-0.143-18.899
		c-0.279-0.394-0.266-1.22-0.055-1.701c2.686-6.165,1.836-11.937-1.75-17.471c-0.413-0.638-0.765-1.45-0.78-2.186
		c-0.076-3.951-0.035-7.902-0.035-11.894c-0.124,0.018,0.078-0.074,0.179-0.008c0.686,0.443,1.359,0.911,2.018,1.395
		c4.147,3.051,8.728,5.408,13.837,5.775c3.98,0.287,7.219,0.941,10.532,3.651c4.806,3.93,10.682,3.243,16.344,1.287
		c0.735-0.255,1.796-0.468,2.378-0.132c5.346,3.079,10.902,2.88,15.89-0.098c3.676-2.197,6.927-3.741,11.285-2.626
		c1.749,0.45,3.8-0.289,5.652-0.484c0.06,0.198,0.119,0.391,0.178,0.582c-0.027,0.021-0.056,0.045-0.084,0.067
		c0.447,1.443,0.898,2.734,1.197,4.055c0.046,0.195,0.075,0.411,0.086,0.631c-0.014,0.366-0.091,0.718-0.255,0.979
		c-1.9,3.051-2.747,6.127-2.692,9.241c-0.013,2.776,0.699,5.576,2.03,8.415c0.171,0.366,0.317,0.836,0.354,1.272
		c-0.011,0.143-0.039,0.279-0.086,0.397c-0.864,2.201-1.194,4.383-1.165,6.557c-0.012,2.736,0.563,5.46,1.393,8.204
		c0.063,0.21,0.095,0.433,0.108,0.663c-0.026,0.691-0.213,1.423-0.404,2.067c-0.717,2.396-2.085,4.708-2.271,7.125
		c-0.212,2.834-1.388,4.25-3.919,4.909c-7.107-5.063-13.516-5.199-21.239-0.561c-0.652,0.39-1.703,0.497-2.446,0.296
		c-5.742-1.58-11.016-0.506-15.926,2.678c-8.057,5.22-13.04,15.232-12.939,24.954c-0.004,1.823,0.171,3.644,0.537,5.419
		c0.099,0.48,0.15,0.987,0.161,1.492c-0.009,0.551-0.063,1.102-0.157,1.628c-0.315,1.733-1.189,3.404-1.301,5.135
		c-0.093,1.433-0.131,2.854-0.12,4.273c0.021,9.553,2.338,18.727,5.698,27.685c1.637,4.365,3.528,8.665,6.997,11.989
		c2.54,2.431,5.464,2.493,8.052,0.129c0.9-0.818,1.864-1.715,2.388-2.779c2.434-4.963,5.188-9.837,6.956-15.044
		c2.664-7.842,4.604-15.934,6.926-24.179c4.834,0.691,9.604,0.236,14.091-1.796c1.389-0.628,2.267-0.367,3.241,0.502
		c8.626,7.713,20.98,4.628,27.585-4.069c0.587-0.775,1.5-1.433,2.399-1.817c8.205-3.519,13.23-9.572,14.954-18.359
		c0.135-0.679,0.414-1.446,0.881-1.925c3.529-3.616,5.136-9.24,5.078-14.775C237.466,173.422,236.024,168.303,233.333,164.932z"/>
</g>
</svg>
